<mxfile host="app.diagrams.net" modified="2024-05-13T19:46:10.219Z" agent="Mozilla/5.0 (Windows NT 10.0; Win64; x64; rv:125.0) Gecko/20100101 Firefox/125.0" etag="D2hHdz6r16U91RNWlLL3" version="24.3.1" type="device">
  <diagram name="Page-1" id="CMCJZaLfXxo1BjavchmB">
    <mxGraphModel dx="3000" dy="2694" grid="1" gridSize="10" guides="1" tooltips="1" connect="1" arrows="1" fold="1" page="1" pageScale="1" pageWidth="850" pageHeight="1100" math="0" shadow="0">
      <root>
        <mxCell id="0" />
        <mxCell id="1" parent="0" />
        <mxCell id="ceq_jrvnc8tUckA45btg-5" value="&lt;div&gt;Answer&lt;/div&gt;" style="rounded=0;whiteSpace=wrap;html=1;" parent="1" vertex="1">
          <mxGeometry x="1657.5" y="310" width="120" height="60" as="geometry" />
        </mxCell>
        <mxCell id="ceq_jrvnc8tUckA45btg-6" value="&lt;div&gt;Question&lt;/div&gt;" style="rounded=0;whiteSpace=wrap;html=1;" parent="1" vertex="1">
          <mxGeometry x="1340" y="50" width="120" height="60" as="geometry" />
        </mxCell>
        <mxCell id="9_J5mN_Ik572sZuyLhqR-127" style="edgeStyle=orthogonalEdgeStyle;rounded=0;orthogonalLoop=1;jettySize=auto;html=1;exitX=0.25;exitY=1;exitDx=0;exitDy=0;entryX=0.5;entryY=0;entryDx=0;entryDy=0;fontFamily=Helvetica;fontSize=12;fontColor=default;" edge="1" parent="1" source="ceq_jrvnc8tUckA45btg-7" target="9_J5mN_Ik572sZuyLhqR-126">
          <mxGeometry relative="1" as="geometry" />
        </mxCell>
        <mxCell id="ceq_jrvnc8tUckA45btg-7" value="User" style="rounded=0;whiteSpace=wrap;html=1;" parent="1" vertex="1">
          <mxGeometry x="740" y="520" width="120" height="60" as="geometry" />
        </mxCell>
        <mxCell id="9_J5mN_Ik572sZuyLhqR-117" style="edgeStyle=orthogonalEdgeStyle;rounded=0;orthogonalLoop=1;jettySize=auto;html=1;exitX=0;exitY=0.25;exitDx=0;exitDy=0;entryX=0.5;entryY=1;entryDx=0;entryDy=0;fontFamily=Helvetica;fontSize=12;fontColor=default;" edge="1" parent="1" source="ceq_jrvnc8tUckA45btg-8" target="ceq_jrvnc8tUckA45btg-14">
          <mxGeometry relative="1" as="geometry" />
        </mxCell>
        <mxCell id="9_J5mN_Ik572sZuyLhqR-139" style="edgeStyle=orthogonalEdgeStyle;rounded=0;orthogonalLoop=1;jettySize=auto;html=1;exitX=1;exitY=0.25;exitDx=0;exitDy=0;entryX=0;entryY=0.5;entryDx=0;entryDy=0;fontFamily=Helvetica;fontSize=12;fontColor=default;" edge="1" parent="1" source="ceq_jrvnc8tUckA45btg-8" target="ceq_jrvnc8tUckA45btg-12">
          <mxGeometry relative="1" as="geometry" />
        </mxCell>
        <mxCell id="ceq_jrvnc8tUckA45btg-8" value="&lt;div&gt;Game&lt;/div&gt;" style="rounded=0;whiteSpace=wrap;html=1;" parent="1" vertex="1">
          <mxGeometry x="470" y="30" width="120" height="60" as="geometry" />
        </mxCell>
        <mxCell id="ceq_jrvnc8tUckA45btg-26" style="edgeStyle=orthogonalEdgeStyle;rounded=0;orthogonalLoop=1;jettySize=auto;html=1;exitX=1;exitY=0.5;exitDx=0;exitDy=0;entryX=1;entryY=0.5;entryDx=0;entryDy=0;" parent="1" source="ceq_jrvnc8tUckA45btg-9" target="ceq_jrvnc8tUckA45btg-8" edge="1">
          <mxGeometry relative="1" as="geometry" />
        </mxCell>
        <mxCell id="ceq_jrvnc8tUckA45btg-9" value="ClosedAt" style="ellipse;whiteSpace=wrap;html=1;" parent="1" vertex="1">
          <mxGeometry x="770" width="120" height="80" as="geometry" />
        </mxCell>
        <mxCell id="ceq_jrvnc8tUckA45btg-22" style="edgeStyle=orthogonalEdgeStyle;rounded=0;orthogonalLoop=1;jettySize=auto;html=1;exitX=1;exitY=1;exitDx=0;exitDy=0;entryX=0.25;entryY=0;entryDx=0;entryDy=0;" parent="1" source="ceq_jrvnc8tUckA45btg-10" target="ceq_jrvnc8tUckA45btg-8" edge="1">
          <mxGeometry relative="1" as="geometry" />
        </mxCell>
        <mxCell id="ceq_jrvnc8tUckA45btg-10" value="&lt;div&gt;Description&lt;/div&gt;" style="ellipse;whiteSpace=wrap;html=1;" parent="1" vertex="1">
          <mxGeometry x="440" y="-140" width="120" height="80" as="geometry" />
        </mxCell>
        <mxCell id="ceq_jrvnc8tUckA45btg-27" style="edgeStyle=orthogonalEdgeStyle;rounded=0;orthogonalLoop=1;jettySize=auto;html=1;exitX=0;exitY=0.5;exitDx=0;exitDy=0;entryX=1;entryY=0.75;entryDx=0;entryDy=0;" parent="1" source="ceq_jrvnc8tUckA45btg-11" target="ceq_jrvnc8tUckA45btg-8" edge="1">
          <mxGeometry relative="1" as="geometry" />
        </mxCell>
        <mxCell id="ceq_jrvnc8tUckA45btg-11" value="Title" style="ellipse;whiteSpace=wrap;html=1;" parent="1" vertex="1">
          <mxGeometry x="940" y="50" width="120" height="80" as="geometry" />
        </mxCell>
        <mxCell id="ceq_jrvnc8tUckA45btg-12" value="ID" style="ellipse;whiteSpace=wrap;html=1;" parent="1" vertex="1">
          <mxGeometry x="920" y="-40" width="120" height="80" as="geometry" />
        </mxCell>
        <mxCell id="ceq_jrvnc8tUckA45btg-20" style="edgeStyle=orthogonalEdgeStyle;rounded=0;orthogonalLoop=1;jettySize=auto;html=1;exitX=1;exitY=1;exitDx=0;exitDy=0;entryX=0;entryY=0.75;entryDx=0;entryDy=0;" parent="1" source="ceq_jrvnc8tUckA45btg-13" target="ceq_jrvnc8tUckA45btg-8" edge="1">
          <mxGeometry relative="1" as="geometry" />
        </mxCell>
        <mxCell id="ceq_jrvnc8tUckA45btg-13" value="Status" style="ellipse;whiteSpace=wrap;html=1;" parent="1" vertex="1">
          <mxGeometry x="305" y="120" width="120" height="80" as="geometry" />
        </mxCell>
        <mxCell id="ceq_jrvnc8tUckA45btg-14" value="Difficulty" style="ellipse;whiteSpace=wrap;html=1;" parent="1" vertex="1">
          <mxGeometry x="320" y="-70" width="120" height="80" as="geometry" />
        </mxCell>
        <mxCell id="ceq_jrvnc8tUckA45btg-23" style="edgeStyle=orthogonalEdgeStyle;rounded=0;orthogonalLoop=1;jettySize=auto;html=1;exitX=0.5;exitY=1;exitDx=0;exitDy=0;entryX=0.5;entryY=0;entryDx=0;entryDy=0;" parent="1" source="ceq_jrvnc8tUckA45btg-15" target="ceq_jrvnc8tUckA45btg-8" edge="1">
          <mxGeometry relative="1" as="geometry" />
        </mxCell>
        <mxCell id="ceq_jrvnc8tUckA45btg-15" value="Kategorie" style="ellipse;whiteSpace=wrap;html=1;" parent="1" vertex="1">
          <mxGeometry x="550" y="-190" width="120" height="80" as="geometry" />
        </mxCell>
        <mxCell id="ceq_jrvnc8tUckA45btg-24" style="edgeStyle=orthogonalEdgeStyle;rounded=0;orthogonalLoop=1;jettySize=auto;html=1;exitX=0;exitY=1;exitDx=0;exitDy=0;entryX=0.75;entryY=0;entryDx=0;entryDy=0;" parent="1" source="ceq_jrvnc8tUckA45btg-16" target="ceq_jrvnc8tUckA45btg-8" edge="1">
          <mxGeometry relative="1" as="geometry" />
        </mxCell>
        <mxCell id="ceq_jrvnc8tUckA45btg-16" value="StartedAt" style="ellipse;whiteSpace=wrap;html=1;" parent="1" vertex="1">
          <mxGeometry x="650" y="-80" width="120" height="80" as="geometry" />
        </mxCell>
        <mxCell id="ceq_jrvnc8tUckA45btg-18" value="JoinCode" style="ellipse;whiteSpace=wrap;html=1;" parent="1" vertex="1">
          <mxGeometry x="230" y="30" width="120" height="80" as="geometry" />
        </mxCell>
        <mxCell id="ceq_jrvnc8tUckA45btg-30" style="edgeStyle=orthogonalEdgeStyle;rounded=0;orthogonalLoop=1;jettySize=auto;html=1;exitX=0.5;exitY=0;exitDx=0;exitDy=0;entryX=0;entryY=1;entryDx=0;entryDy=0;" parent="1" source="ceq_jrvnc8tUckA45btg-19" target="ceq_jrvnc8tUckA45btg-8" edge="1">
          <mxGeometry relative="1" as="geometry" />
        </mxCell>
        <mxCell id="ceq_jrvnc8tUckA45btg-19" value="&lt;div&gt;deletedAt&lt;/div&gt;" style="ellipse;whiteSpace=wrap;html=1;" parent="1" vertex="1">
          <mxGeometry x="470" y="150" width="120" height="80" as="geometry" />
        </mxCell>
        <mxCell id="ceq_jrvnc8tUckA45btg-31" value="ID" style="ellipse;whiteSpace=wrap;html=1;" parent="1" vertex="1">
          <mxGeometry x="1200" y="650" width="120" height="80" as="geometry" />
        </mxCell>
        <mxCell id="ceq_jrvnc8tUckA45btg-39" style="edgeStyle=orthogonalEdgeStyle;rounded=0;orthogonalLoop=1;jettySize=auto;html=1;exitX=1;exitY=0.5;exitDx=0;exitDy=0;entryX=0.5;entryY=0;entryDx=0;entryDy=0;" parent="1" source="ceq_jrvnc8tUckA45btg-32" target="ceq_jrvnc8tUckA45btg-7" edge="1">
          <mxGeometry relative="1" as="geometry" />
        </mxCell>
        <mxCell id="ceq_jrvnc8tUckA45btg-32" value="Country" style="ellipse;whiteSpace=wrap;html=1;" parent="1" vertex="1">
          <mxGeometry x="620" y="420" width="120" height="80" as="geometry" />
        </mxCell>
        <mxCell id="ceq_jrvnc8tUckA45btg-38" style="edgeStyle=orthogonalEdgeStyle;rounded=0;orthogonalLoop=1;jettySize=auto;html=1;exitX=0.5;exitY=1;exitDx=0;exitDy=0;entryX=0.75;entryY=0;entryDx=0;entryDy=0;" parent="1" source="ceq_jrvnc8tUckA45btg-33" target="ceq_jrvnc8tUckA45btg-7" edge="1">
          <mxGeometry relative="1" as="geometry" />
        </mxCell>
        <mxCell id="ceq_jrvnc8tUckA45btg-33" value="&lt;div&gt;Passwort&lt;/div&gt;" style="ellipse;whiteSpace=wrap;html=1;" parent="1" vertex="1">
          <mxGeometry x="750" y="370" width="120" height="80" as="geometry" />
        </mxCell>
        <mxCell id="ceq_jrvnc8tUckA45btg-37" style="edgeStyle=orthogonalEdgeStyle;rounded=0;orthogonalLoop=1;jettySize=auto;html=1;exitX=0;exitY=1;exitDx=0;exitDy=0;entryX=1;entryY=0.25;entryDx=0;entryDy=0;" parent="1" source="ceq_jrvnc8tUckA45btg-34" target="ceq_jrvnc8tUckA45btg-7" edge="1">
          <mxGeometry relative="1" as="geometry" />
        </mxCell>
        <mxCell id="ceq_jrvnc8tUckA45btg-34" value="Username" style="ellipse;whiteSpace=wrap;html=1;" parent="1" vertex="1">
          <mxGeometry x="940" y="680" width="120" height="80" as="geometry" />
        </mxCell>
        <mxCell id="ceq_jrvnc8tUckA45btg-36" style="edgeStyle=orthogonalEdgeStyle;rounded=0;orthogonalLoop=1;jettySize=auto;html=1;exitX=0;exitY=0.5;exitDx=0;exitDy=0;entryX=1;entryY=0.75;entryDx=0;entryDy=0;" parent="1" source="ceq_jrvnc8tUckA45btg-35" target="ceq_jrvnc8tUckA45btg-7" edge="1">
          <mxGeometry relative="1" as="geometry" />
        </mxCell>
        <mxCell id="ceq_jrvnc8tUckA45btg-35" value="&lt;div&gt;ID&lt;br&gt;&lt;/div&gt;" style="ellipse;whiteSpace=wrap;html=1;" parent="1" vertex="1">
          <mxGeometry x="860" y="790" width="120" height="80" as="geometry" />
        </mxCell>
        <mxCell id="ceq_jrvnc8tUckA45btg-53" style="edgeStyle=orthogonalEdgeStyle;rounded=0;orthogonalLoop=1;jettySize=auto;html=1;exitX=0;exitY=0;exitDx=0;exitDy=0;entryX=0.75;entryY=1;entryDx=0;entryDy=0;" parent="1" source="ceq_jrvnc8tUckA45btg-40" target="ceq_jrvnc8tUckA45btg-6" edge="1">
          <mxGeometry relative="1" as="geometry" />
        </mxCell>
        <mxCell id="ceq_jrvnc8tUckA45btg-40" value="Subcategory" style="ellipse;whiteSpace=wrap;html=1;" parent="1" vertex="1">
          <mxGeometry x="1415" y="140" width="120" height="80" as="geometry" />
        </mxCell>
        <mxCell id="ceq_jrvnc8tUckA45btg-52" style="edgeStyle=orthogonalEdgeStyle;rounded=0;orthogonalLoop=1;jettySize=auto;html=1;exitX=0;exitY=0.5;exitDx=0;exitDy=0;entryX=1;entryY=0.5;entryDx=0;entryDy=0;" parent="1" source="ceq_jrvnc8tUckA45btg-41" target="ceq_jrvnc8tUckA45btg-6" edge="1">
          <mxGeometry relative="1" as="geometry" />
        </mxCell>
        <mxCell id="ceq_jrvnc8tUckA45btg-41" value="Image" style="ellipse;whiteSpace=wrap;html=1;" parent="1" vertex="1">
          <mxGeometry x="1485" y="40" width="120" height="80" as="geometry" />
        </mxCell>
        <mxCell id="ceq_jrvnc8tUckA45btg-51" style="edgeStyle=orthogonalEdgeStyle;rounded=0;orthogonalLoop=1;jettySize=auto;html=1;exitX=0;exitY=1;exitDx=0;exitDy=0;entryX=0.25;entryY=0;entryDx=0;entryDy=0;" parent="1" source="ceq_jrvnc8tUckA45btg-42" target="ceq_jrvnc8tUckA45btg-6" edge="1">
          <mxGeometry relative="1" as="geometry" />
        </mxCell>
        <mxCell id="ceq_jrvnc8tUckA45btg-42" value="Question" style="ellipse;whiteSpace=wrap;html=1;" parent="1" vertex="1">
          <mxGeometry x="1385" y="-50" width="120" height="80" as="geometry" />
        </mxCell>
        <mxCell id="ceq_jrvnc8tUckA45btg-50" style="edgeStyle=orthogonalEdgeStyle;rounded=0;orthogonalLoop=1;jettySize=auto;html=1;exitX=0.5;exitY=1;exitDx=0;exitDy=0;entryX=0;entryY=0.5;entryDx=0;entryDy=0;" parent="1" source="ceq_jrvnc8tUckA45btg-43" target="ceq_jrvnc8tUckA45btg-6" edge="1">
          <mxGeometry relative="1" as="geometry" />
        </mxCell>
        <mxCell id="ceq_jrvnc8tUckA45btg-43" value="IID" style="ellipse;whiteSpace=wrap;html=1;" parent="1" vertex="1">
          <mxGeometry x="1220" y="-60" width="120" height="80" as="geometry" />
        </mxCell>
        <mxCell id="ceq_jrvnc8tUckA45btg-49" style="edgeStyle=orthogonalEdgeStyle;rounded=0;orthogonalLoop=1;jettySize=auto;html=1;exitX=1;exitY=0.5;exitDx=0;exitDy=0;entryX=0.25;entryY=1;entryDx=0;entryDy=0;" parent="1" source="ceq_jrvnc8tUckA45btg-44" target="ceq_jrvnc8tUckA45btg-5" edge="1">
          <mxGeometry relative="1" as="geometry" />
        </mxCell>
        <mxCell id="ceq_jrvnc8tUckA45btg-44" value="Text" style="ellipse;whiteSpace=wrap;html=1;" parent="1" vertex="1">
          <mxGeometry x="1517.5" y="350" width="120" height="80" as="geometry" />
        </mxCell>
        <mxCell id="ceq_jrvnc8tUckA45btg-48" style="edgeStyle=orthogonalEdgeStyle;rounded=0;orthogonalLoop=1;jettySize=auto;html=1;exitX=1;exitY=1;exitDx=0;exitDy=0;entryX=0;entryY=0.5;entryDx=0;entryDy=0;" parent="1" source="ceq_jrvnc8tUckA45btg-45" target="ceq_jrvnc8tUckA45btg-5" edge="1">
          <mxGeometry relative="1" as="geometry" />
        </mxCell>
        <mxCell id="ceq_jrvnc8tUckA45btg-45" value="isCorrect" style="ellipse;whiteSpace=wrap;html=1;" parent="1" vertex="1">
          <mxGeometry x="1527.5" y="250" width="120" height="80" as="geometry" />
        </mxCell>
        <mxCell id="ceq_jrvnc8tUckA45btg-47" style="edgeStyle=orthogonalEdgeStyle;rounded=0;orthogonalLoop=1;jettySize=auto;html=1;exitX=0.5;exitY=1;exitDx=0;exitDy=0;entryX=0.5;entryY=0;entryDx=0;entryDy=0;" parent="1" source="ceq_jrvnc8tUckA45btg-46" target="ceq_jrvnc8tUckA45btg-5" edge="1">
          <mxGeometry relative="1" as="geometry" />
        </mxCell>
        <mxCell id="ceq_jrvnc8tUckA45btg-46" value="ID" style="ellipse;whiteSpace=wrap;html=1;" parent="1" vertex="1">
          <mxGeometry x="1647.5" y="210" width="120" height="80" as="geometry" />
        </mxCell>
        <mxCell id="9_J5mN_Ik572sZuyLhqR-141" style="edgeStyle=orthogonalEdgeStyle;rounded=0;orthogonalLoop=1;jettySize=auto;html=1;exitX=0.5;exitY=1;exitDx=0;exitDy=0;entryX=1;entryY=0.5;entryDx=0;entryDy=0;fontFamily=Helvetica;fontSize=12;fontColor=default;" edge="1" parent="1" source="ceq_jrvnc8tUckA45btg-54" target="ceq_jrvnc8tUckA45btg-31">
          <mxGeometry relative="1" as="geometry" />
        </mxCell>
        <mxCell id="ceq_jrvnc8tUckA45btg-54" value="PlayerAnswer" style="rounded=0;whiteSpace=wrap;html=1;" parent="1" vertex="1">
          <mxGeometry x="1350" y="570" width="120" height="60" as="geometry" />
        </mxCell>
        <mxCell id="9_J5mN_Ik572sZuyLhqR-10" value="chooses" style="rhombus;whiteSpace=wrap;html=1;" vertex="1" parent="1">
          <mxGeometry x="1020" y="410" width="80" height="80" as="geometry" />
        </mxCell>
        <mxCell id="9_J5mN_Ik572sZuyLhqR-11" value="" style="endArrow=none;html=1;rounded=0;exitX=0;exitY=0;exitDx=0;exitDy=0;entryX=1;entryY=0;entryDx=0;entryDy=0;" edge="1" parent="1" source="9_J5mN_Ik572sZuyLhqR-10" target="ceq_jrvnc8tUckA45btg-7">
          <mxGeometry relative="1" as="geometry">
            <mxPoint x="1130" y="540" as="sourcePoint" />
            <mxPoint x="840" y="660" as="targetPoint" />
            <Array as="points">
              <mxPoint x="990" y="500" />
            </Array>
          </mxGeometry>
        </mxCell>
        <mxCell id="9_J5mN_Ik572sZuyLhqR-12" value="1" style="resizable=0;html=1;whiteSpace=wrap;align=right;verticalAlign=bottom;" connectable="0" vertex="1" parent="9_J5mN_Ik572sZuyLhqR-11">
          <mxGeometry x="1" relative="1" as="geometry" />
        </mxCell>
        <mxCell id="9_J5mN_Ik572sZuyLhqR-13" value="" style="endArrow=none;html=1;rounded=0;exitX=1;exitY=1;exitDx=0;exitDy=0;entryX=0;entryY=0.5;entryDx=0;entryDy=0;" edge="1" parent="1" source="9_J5mN_Ik572sZuyLhqR-10" target="ceq_jrvnc8tUckA45btg-54">
          <mxGeometry relative="1" as="geometry">
            <mxPoint x="1130" y="540" as="sourcePoint" />
            <mxPoint x="1290" y="540" as="targetPoint" />
          </mxGeometry>
        </mxCell>
        <mxCell id="9_J5mN_Ik572sZuyLhqR-14" value="N" style="resizable=0;html=1;whiteSpace=wrap;align=right;verticalAlign=bottom;" connectable="0" vertex="1" parent="9_J5mN_Ik572sZuyLhqR-13">
          <mxGeometry x="1" relative="1" as="geometry" />
        </mxCell>
        <mxCell id="9_J5mN_Ik572sZuyLhqR-15" value="is" style="rhombus;whiteSpace=wrap;html=1;" vertex="1" parent="1">
          <mxGeometry x="1630" y="500" width="80" height="80" as="geometry" />
        </mxCell>
        <mxCell id="9_J5mN_Ik572sZuyLhqR-24" value="has" style="rhombus;whiteSpace=wrap;html=1;" vertex="1" parent="1">
          <mxGeometry x="1060" y="170" width="80" height="80" as="geometry" />
        </mxCell>
        <mxCell id="9_J5mN_Ik572sZuyLhqR-27" value="" style="endArrow=none;html=1;rounded=0;fontFamily=Helvetica;fontSize=12;fontColor=default;entryX=1;entryY=1;entryDx=0;entryDy=0;exitX=0;exitY=0.5;exitDx=0;exitDy=0;" edge="1" parent="1" source="9_J5mN_Ik572sZuyLhqR-24" target="ceq_jrvnc8tUckA45btg-8">
          <mxGeometry relative="1" as="geometry">
            <mxPoint x="1010" y="190" as="sourcePoint" />
            <mxPoint x="1170" y="190" as="targetPoint" />
          </mxGeometry>
        </mxCell>
        <mxCell id="9_J5mN_Ik572sZuyLhqR-28" value="1" style="resizable=0;html=1;whiteSpace=wrap;align=right;verticalAlign=bottom;strokeColor=default;fontFamily=Helvetica;fontSize=12;fontColor=default;fillColor=default;" connectable="0" vertex="1" parent="9_J5mN_Ik572sZuyLhqR-27">
          <mxGeometry x="1" relative="1" as="geometry" />
        </mxCell>
        <mxCell id="9_J5mN_Ik572sZuyLhqR-29" value="" style="endArrow=none;html=1;rounded=0;fontFamily=Helvetica;fontSize=12;fontColor=default;exitX=1;exitY=0.5;exitDx=0;exitDy=0;entryX=0;entryY=0.25;entryDx=0;entryDy=0;" edge="1" parent="1" source="9_J5mN_Ik572sZuyLhqR-24" target="ceq_jrvnc8tUckA45btg-6">
          <mxGeometry relative="1" as="geometry">
            <mxPoint x="1010" y="190" as="sourcePoint" />
            <mxPoint x="1170" y="190" as="targetPoint" />
          </mxGeometry>
        </mxCell>
        <mxCell id="9_J5mN_Ik572sZuyLhqR-30" value="N" style="resizable=0;html=1;whiteSpace=wrap;align=right;verticalAlign=bottom;strokeColor=default;fontFamily=Helvetica;fontSize=12;fontColor=default;fillColor=default;" connectable="0" vertex="1" parent="9_J5mN_Ik572sZuyLhqR-29">
          <mxGeometry x="1" relative="1" as="geometry" />
        </mxCell>
        <mxCell id="9_J5mN_Ik572sZuyLhqR-31" value="" style="endArrow=none;html=1;rounded=0;fontFamily=Helvetica;fontSize=12;fontColor=default;entryX=0.25;entryY=1;entryDx=0;entryDy=0;exitX=0;exitY=0.5;exitDx=0;exitDy=0;" edge="1" parent="1" source="9_J5mN_Ik572sZuyLhqR-33" target="ceq_jrvnc8tUckA45btg-6">
          <mxGeometry relative="1" as="geometry">
            <mxPoint x="1200" y="520" as="sourcePoint" />
            <mxPoint x="1290" y="510" as="targetPoint" />
          </mxGeometry>
        </mxCell>
        <mxCell id="9_J5mN_Ik572sZuyLhqR-32" value="1" style="resizable=0;html=1;whiteSpace=wrap;align=right;verticalAlign=bottom;strokeColor=default;fontFamily=Helvetica;fontSize=12;fontColor=default;fillColor=default;" connectable="0" vertex="1" parent="9_J5mN_Ik572sZuyLhqR-31">
          <mxGeometry x="1" relative="1" as="geometry" />
        </mxCell>
        <mxCell id="9_J5mN_Ik572sZuyLhqR-33" value="has" style="rhombus;whiteSpace=wrap;html=1;" vertex="1" parent="1">
          <mxGeometry x="1305" y="270" width="80" height="80" as="geometry" />
        </mxCell>
        <mxCell id="9_J5mN_Ik572sZuyLhqR-34" value="" style="endArrow=none;html=1;rounded=0;fontFamily=Helvetica;fontSize=12;fontColor=default;entryX=0;entryY=0.75;entryDx=0;entryDy=0;exitX=1;exitY=0.5;exitDx=0;exitDy=0;" edge="1" parent="1" source="9_J5mN_Ik572sZuyLhqR-33" target="ceq_jrvnc8tUckA45btg-5">
          <mxGeometry relative="1" as="geometry">
            <mxPoint x="1247.5" y="310" as="sourcePoint" />
            <mxPoint x="1407.5" y="310" as="targetPoint" />
          </mxGeometry>
        </mxCell>
        <mxCell id="9_J5mN_Ik572sZuyLhqR-35" value="N" style="resizable=0;html=1;whiteSpace=wrap;align=right;verticalAlign=bottom;strokeColor=default;fontFamily=Helvetica;fontSize=12;fontColor=default;fillColor=default;" connectable="0" vertex="1" parent="9_J5mN_Ik572sZuyLhqR-34">
          <mxGeometry x="1" relative="1" as="geometry" />
        </mxCell>
        <mxCell id="9_J5mN_Ik572sZuyLhqR-38" value="" style="endArrow=none;html=1;rounded=0;fontFamily=Helvetica;fontSize=12;fontColor=default;entryX=1;entryY=1;entryDx=0;entryDy=0;exitX=0;exitY=0.5;exitDx=0;exitDy=0;" edge="1" parent="1" source="9_J5mN_Ik572sZuyLhqR-15" target="ceq_jrvnc8tUckA45btg-54">
          <mxGeometry relative="1" as="geometry">
            <mxPoint x="1390" y="790" as="sourcePoint" />
            <mxPoint x="1550" y="790" as="targetPoint" />
            <Array as="points" />
          </mxGeometry>
        </mxCell>
        <mxCell id="9_J5mN_Ik572sZuyLhqR-39" value="1" style="resizable=0;html=1;whiteSpace=wrap;align=right;verticalAlign=bottom;strokeColor=default;fontFamily=Helvetica;fontSize=12;fontColor=default;fillColor=default;" connectable="0" vertex="1" parent="9_J5mN_Ik572sZuyLhqR-38">
          <mxGeometry x="1" relative="1" as="geometry" />
        </mxCell>
        <mxCell id="9_J5mN_Ik572sZuyLhqR-41" value="" style="endArrow=none;html=1;rounded=0;fontFamily=Helvetica;fontSize=12;fontColor=default;entryX=0.75;entryY=1;entryDx=0;entryDy=0;exitX=0.5;exitY=0;exitDx=0;exitDy=0;" edge="1" parent="1" source="9_J5mN_Ik572sZuyLhqR-15" target="ceq_jrvnc8tUckA45btg-5">
          <mxGeometry relative="1" as="geometry">
            <mxPoint x="1130" y="510" as="sourcePoint" />
            <mxPoint x="1290" y="510" as="targetPoint" />
          </mxGeometry>
        </mxCell>
        <mxCell id="9_J5mN_Ik572sZuyLhqR-42" value="1" style="resizable=0;html=1;whiteSpace=wrap;align=right;verticalAlign=bottom;strokeColor=default;fontFamily=Helvetica;fontSize=12;fontColor=default;fillColor=default;" connectable="0" vertex="1" parent="9_J5mN_Ik572sZuyLhqR-41">
          <mxGeometry x="1" relative="1" as="geometry" />
        </mxCell>
        <mxCell id="9_J5mN_Ik572sZuyLhqR-134" style="edgeStyle=orthogonalEdgeStyle;rounded=0;orthogonalLoop=1;jettySize=auto;html=1;exitX=0.25;exitY=0;exitDx=0;exitDy=0;entryX=0.5;entryY=1;entryDx=0;entryDy=0;fontFamily=Helvetica;fontSize=12;fontColor=default;" edge="1" parent="1" source="9_J5mN_Ik572sZuyLhqR-70" target="9_J5mN_Ik572sZuyLhqR-130">
          <mxGeometry relative="1" as="geometry" />
        </mxCell>
        <mxCell id="9_J5mN_Ik572sZuyLhqR-135" style="edgeStyle=orthogonalEdgeStyle;rounded=0;orthogonalLoop=1;jettySize=auto;html=1;exitX=0;exitY=0.5;exitDx=0;exitDy=0;entryX=1;entryY=1;entryDx=0;entryDy=0;fontFamily=Helvetica;fontSize=12;fontColor=default;" edge="1" parent="1" source="9_J5mN_Ik572sZuyLhqR-70" target="9_J5mN_Ik572sZuyLhqR-131">
          <mxGeometry relative="1" as="geometry" />
        </mxCell>
        <mxCell id="9_J5mN_Ik572sZuyLhqR-136" style="edgeStyle=orthogonalEdgeStyle;rounded=0;orthogonalLoop=1;jettySize=auto;html=1;exitX=0.5;exitY=1;exitDx=0;exitDy=0;fontFamily=Helvetica;fontSize=12;fontColor=default;" edge="1" parent="1" source="9_J5mN_Ik572sZuyLhqR-70" target="9_J5mN_Ik572sZuyLhqR-133">
          <mxGeometry relative="1" as="geometry" />
        </mxCell>
        <mxCell id="9_J5mN_Ik572sZuyLhqR-137" style="edgeStyle=orthogonalEdgeStyle;rounded=0;orthogonalLoop=1;jettySize=auto;html=1;exitX=0;exitY=1;exitDx=0;exitDy=0;entryX=1;entryY=0.5;entryDx=0;entryDy=0;fontFamily=Helvetica;fontSize=12;fontColor=default;" edge="1" parent="1" source="9_J5mN_Ik572sZuyLhqR-70" target="9_J5mN_Ik572sZuyLhqR-132">
          <mxGeometry relative="1" as="geometry" />
        </mxCell>
        <mxCell id="9_J5mN_Ik572sZuyLhqR-70" value="Badges" style="rounded=0;whiteSpace=wrap;html=1;" vertex="1" parent="1">
          <mxGeometry x="320" y="530" width="120" height="60" as="geometry" />
        </mxCell>
        <mxCell id="9_J5mN_Ik572sZuyLhqR-71" value="has" style="rhombus;whiteSpace=wrap;html=1;" vertex="1" parent="1">
          <mxGeometry x="540" y="510" width="80" height="80" as="geometry" />
        </mxCell>
        <mxCell id="9_J5mN_Ik572sZuyLhqR-72" value="" style="endArrow=none;html=1;rounded=0;fontFamily=Helvetica;fontSize=12;fontColor=default;entryX=0;entryY=0.25;entryDx=0;entryDy=0;exitX=1;exitY=0.5;exitDx=0;exitDy=0;" edge="1" parent="1" source="9_J5mN_Ik572sZuyLhqR-71" target="ceq_jrvnc8tUckA45btg-7">
          <mxGeometry relative="1" as="geometry">
            <mxPoint x="720" y="670" as="sourcePoint" />
            <mxPoint x="780" y="550" as="targetPoint" />
          </mxGeometry>
        </mxCell>
        <mxCell id="9_J5mN_Ik572sZuyLhqR-73" value="1" style="resizable=0;html=1;whiteSpace=wrap;align=right;verticalAlign=bottom;strokeColor=default;fontFamily=Helvetica;fontSize=12;fontColor=default;fillColor=default;" connectable="0" vertex="1" parent="9_J5mN_Ik572sZuyLhqR-72">
          <mxGeometry x="1" relative="1" as="geometry" />
        </mxCell>
        <mxCell id="9_J5mN_Ik572sZuyLhqR-74" value="" style="endArrow=none;html=1;rounded=0;fontFamily=Helvetica;fontSize=12;fontColor=default;entryX=1;entryY=0.5;entryDx=0;entryDy=0;exitX=0;exitY=0.5;exitDx=0;exitDy=0;" edge="1" parent="1" source="9_J5mN_Ik572sZuyLhqR-71" target="9_J5mN_Ik572sZuyLhqR-70">
          <mxGeometry relative="1" as="geometry">
            <mxPoint x="640" y="670" as="sourcePoint" />
            <mxPoint x="570" y="730" as="targetPoint" />
          </mxGeometry>
        </mxCell>
        <mxCell id="9_J5mN_Ik572sZuyLhqR-75" value="N" style="resizable=0;html=1;whiteSpace=wrap;align=right;verticalAlign=bottom;strokeColor=default;fontFamily=Helvetica;fontSize=12;fontColor=default;fillColor=default;" connectable="0" vertex="1" parent="9_J5mN_Ik572sZuyLhqR-74">
          <mxGeometry x="1" relative="1" as="geometry" />
        </mxCell>
        <mxCell id="9_J5mN_Ik572sZuyLhqR-123" value="plays" style="rounded=0;whiteSpace=wrap;html=1;strokeColor=default;align=center;verticalAlign=middle;fontFamily=Helvetica;fontSize=12;fontColor=default;fillColor=default;" vertex="1" parent="1">
          <mxGeometry x="700" y="180" width="120" height="60" as="geometry" />
        </mxCell>
        <mxCell id="9_J5mN_Ik572sZuyLhqR-124" value="" style="endArrow=none;html=1;rounded=0;fontFamily=Helvetica;fontSize=12;fontColor=default;entryX=0.341;entryY=1.047;entryDx=0;entryDy=0;exitX=0.25;exitY=0;exitDx=0;exitDy=0;entryPerimeter=0;" edge="1" parent="1" source="9_J5mN_Ik572sZuyLhqR-123" target="ceq_jrvnc8tUckA45btg-8">
          <mxGeometry relative="1" as="geometry">
            <mxPoint x="680" y="160" as="sourcePoint" />
            <mxPoint x="700" y="260" as="targetPoint" />
          </mxGeometry>
        </mxCell>
        <mxCell id="9_J5mN_Ik572sZuyLhqR-125" value="N" style="resizable=0;html=1;whiteSpace=wrap;align=right;verticalAlign=bottom;strokeColor=default;fontFamily=Helvetica;fontSize=12;fontColor=default;fillColor=default;" connectable="0" vertex="1" parent="9_J5mN_Ik572sZuyLhqR-124">
          <mxGeometry x="1" relative="1" as="geometry" />
        </mxCell>
        <mxCell id="9_J5mN_Ik572sZuyLhqR-126" value="Points" style="ellipse;whiteSpace=wrap;html=1;" vertex="1" parent="1">
          <mxGeometry x="680" y="670" width="120" height="80" as="geometry" />
        </mxCell>
        <mxCell id="9_J5mN_Ik572sZuyLhqR-128" value="" style="endArrow=none;html=1;rounded=0;fontFamily=Helvetica;fontSize=12;fontColor=default;entryX=0.25;entryY=0;entryDx=0;entryDy=0;exitX=0.25;exitY=1;exitDx=0;exitDy=0;" edge="1" parent="1" source="9_J5mN_Ik572sZuyLhqR-123" target="ceq_jrvnc8tUckA45btg-7">
          <mxGeometry relative="1" as="geometry">
            <mxPoint x="470" y="390" as="sourcePoint" />
            <mxPoint x="630" y="390" as="targetPoint" />
          </mxGeometry>
        </mxCell>
        <mxCell id="9_J5mN_Ik572sZuyLhqR-129" value="N" style="resizable=0;html=1;whiteSpace=wrap;align=right;verticalAlign=bottom;strokeColor=default;fontFamily=Helvetica;fontSize=12;fontColor=default;fillColor=default;" connectable="0" vertex="1" parent="9_J5mN_Ik572sZuyLhqR-128">
          <mxGeometry x="1" relative="1" as="geometry" />
        </mxCell>
        <mxCell id="9_J5mN_Ik572sZuyLhqR-130" value="Title" style="ellipse;whiteSpace=wrap;html=1;" vertex="1" parent="1">
          <mxGeometry x="290" y="420" width="120" height="80" as="geometry" />
        </mxCell>
        <mxCell id="9_J5mN_Ik572sZuyLhqR-131" value="ID" style="ellipse;whiteSpace=wrap;html=1;" vertex="1" parent="1">
          <mxGeometry x="130" y="480" width="120" height="80" as="geometry" />
        </mxCell>
        <mxCell id="9_J5mN_Ik572sZuyLhqR-132" value="createdAt" style="ellipse;whiteSpace=wrap;html=1;" vertex="1" parent="1">
          <mxGeometry x="160" y="590" width="120" height="80" as="geometry" />
        </mxCell>
        <mxCell id="9_J5mN_Ik572sZuyLhqR-133" value="deletedAt" style="ellipse;whiteSpace=wrap;html=1;" vertex="1" parent="1">
          <mxGeometry x="340" y="630" width="120" height="80" as="geometry" />
        </mxCell>
        <mxCell id="9_J5mN_Ik572sZuyLhqR-140" style="edgeStyle=orthogonalEdgeStyle;rounded=0;orthogonalLoop=1;jettySize=auto;html=1;exitX=0;exitY=0.5;exitDx=0;exitDy=0;fontFamily=Helvetica;fontSize=12;fontColor=default;entryX=1;entryY=0.5;entryDx=0;entryDy=0;" edge="1" parent="1" source="ceq_jrvnc8tUckA45btg-8" target="ceq_jrvnc8tUckA45btg-18">
          <mxGeometry relative="1" as="geometry">
            <mxPoint x="210" y="60" as="targetPoint" />
          </mxGeometry>
        </mxCell>
      </root>
    </mxGraphModel>
  </diagram>
</mxfile>
